<svg version="1.2" baseProfile="tiny-ps" xmlns="http://www.w3.org/2000/svg" viewBox="0 0 541 295" width="541" height="295">
	<title>New Project</title>
	<style>
		tspan { white-space:pre }
		.shp0 { fill: #000000 } 
	</style>
	<path id="Madré " fill-rule="evenodd" class="shp0" d="M54.68 279.26C52.26 280 50.39 279.81 49.07 278.67C47.75 277.54 46.83 276.15 46.33 274.49C43.92 266.58 41.93 257.29 40.35 246.62C38.9 235.92 37.79 225.17 37.01 214.4C36.45 205.23 36.25 196.58 36.42 188.44C36.72 180.27 37.11 173.53 37.58 168.23C38.37 160.74 40.02 154.73 42.54 150.2C45.15 145.5 48.88 142.41 53.73 140.94C57.3 139.85 60.86 140.09 64.4 141.66C67.91 143.1 70.85 146.8 73.22 152.77C76.24 159.93 79.41 167.12 82.72 174.34C86.03 181.55 89.28 188.09 92.46 193.95C95.6 199.68 98.38 204 100.79 206.88C102.83 209.47 104.94 210.43 107.11 209.77C109.53 209.03 111.17 206.86 112.02 203.25C112.82 199.94 113.44 195.57 113.88 190.14C114.32 184.71 114.61 179.05 114.76 173.15C115.01 167.08 115.15 161.6 115.19 156.71C115.37 151.36 115.75 145.95 116.31 140.48C116.96 134.84 118.46 129.93 120.81 125.73C123.11 121.4 126.75 118.48 131.73 116.96C136.32 115.57 140.06 116.17 142.94 118.78C145.92 121.21 148.43 125.81 150.49 132.57C152.08 137.8 153.56 143.35 154.93 149.2C155.81 152.56 156.67 156.06 157.5 159.71C158.43 163.19 159.45 166.78 160.58 170.48C162.32 176.22 164.43 182.2 166.88 188.42C169.46 194.61 172.43 200.25 175.8 205.36C179.3 210.43 183.35 214.35 187.96 217.13C189.25 217.71 190.45 218.46 191.57 219.37C192.81 220.25 193.65 221.39 194.07 222.79C195.05 225.98 194.22 229.44 191.59 233.16C189.05 236.72 185.61 239.17 181.28 240.49C177.32 241.69 174 241.31 171.31 239.34C168.62 237.37 166.04 234.4 163.57 230.41C160.66 225.44 158.02 219.97 155.65 214.01C153.27 208.04 151.21 202.19 149.46 196.45C146.66 187.26 144.42 178.75 142.72 170.9C141.12 162.89 139.75 157.03 138.63 153.33C138 151.29 137.37 149.88 136.71 149.11C136.02 148.2 134.91 147.99 133.38 148.45C131.59 149 130.31 150.29 129.54 152.34C128.86 154.22 128.56 156.68 128.65 159.72C128.63 165.58 128.53 171.88 128.35 178.63C128.18 185.37 127.83 192.02 127.33 198.59C126.94 205.12 126.18 211.07 125.03 216.44C123.72 222.69 121.64 227.29 118.78 230.26C116.01 233.05 112.9 234.97 109.46 236.02C104.1 237.66 99.51 237.24 95.7 234.78C91.97 232.15 88.85 228.99 86.33 225.3C83 220.32 79.29 213.64 75.21 205.27C71.09 196.77 67.02 187.07 63 176.16C61.3 171.52 59.05 169.63 56.25 170.48C53.19 171.42 51.46 174.45 51.08 179.59C50.95 184.65 51.13 190.51 51.63 197.19C52.09 203.74 52.91 210.53 54.07 217.56C55.33 224.43 56.95 231.11 58.93 237.62C60.6 243.1 62.25 247.83 63.88 251.79C65.63 255.72 67.05 259.47 68.14 263.04C68.91 265.59 68.54 268 67 270.28C65.59 272.52 63.67 274.44 61.22 276.02C58.77 277.6 56.6 278.68 54.68 279.26ZM232.59 225.69C224.94 228.02 218.03 227.55 211.88 224.26C205.81 220.82 201.42 214.63 198.7 205.7C196.75 199.32 196.04 192.64 196.56 185.65C197.17 178.5 199.05 171.65 202.22 165.11C205.38 158.57 209.82 152.76 215.52 147.68C221.22 142.6 228.21 138.79 236.5 136.27C244.15 133.94 251.07 133.29 257.24 134.34C263.5 135.22 267.31 137.89 268.67 142.36C269.02 143.51 269.36 145.07 269.69 147.07C269.98 148.93 270.11 150.49 270.07 151.76C270 152.89 269.72 154.03 269.23 155.15C268.82 156.11 268.04 156.77 266.9 157.12C266.39 157.27 265.37 157.37 263.85 157.42C264.16 160.25 264.57 162.98 265.09 165.61C265.62 168.24 266.27 170.83 267.04 173.38C268.52 178.23 270.54 182.35 273.11 185.75C275.77 188.98 279.4 190.38 284.01 189.95C285.23 189.86 286.24 189.97 287.04 190.29C287.96 190.56 288.67 191.53 289.18 193.19C289.6 194.59 289.77 196.49 289.66 198.9C289.68 201.26 288.95 203.64 287.45 206.05C286.04 208.29 283.49 209.97 279.79 211.1C274.81 212.62 270.44 212 266.68 209.24C262.87 206.36 259.94 201.54 257.88 194.78C256.34 202.08 253.5 208.52 249.34 214.11C245.32 219.65 239.73 223.51 232.59 225.69ZM232.65 203.93C237.75 202.37 241.73 199.42 244.59 195.06C247.57 190.67 249.41 185.72 250.1 180.21C250.57 176.73 250.64 173.08 250.32 169.27C249.96 165.34 249.36 161.55 248.53 157.9C246.05 157.54 243.31 157.47 240.31 157.69C237.31 157.91 234.28 158.48 231.22 159.41C223.44 161.78 217.7 166.04 213.99 172.19C210.42 178.29 209.68 184.79 211.78 191.68C213.33 196.78 216 200.5 219.77 202.83C223.51 205.04 227.81 205.4 232.65 203.93ZM329.21 196.26C321.55 198.59 314.72 197.88 308.7 194.14C302.81 190.36 298.52 184.07 295.84 175.27C293.86 168.76 292.94 162.07 293.08 155.2C293.34 148.29 294.63 141.77 296.94 135.63C299.25 129.49 302.51 124.17 306.72 119.69C310.92 115.2 316.03 112.04 322.02 110.21C325.85 109.05 329.4 108.59 332.69 108.85C336.1 109.06 339.22 109.71 342.06 110.8C339.29 102.17 336.47 94.52 333.61 87.87C330.75 81.21 326.96 75.4 322.23 70.43C321.41 69.56 320.69 68.8 320.08 68.15C319.55 67.34 319.17 66.55 318.94 65.78C318.39 64 318.59 62.13 319.53 60.17C320.59 58.17 322.05 56.33 323.91 54.65C325.77 52.97 327.65 51.84 329.57 51.26C333.01 50.21 336.03 50.96 338.62 53.52C341.3 55.91 343.69 59.64 345.79 64.71C347.86 69.66 349.9 75.45 351.92 82.08C354.87 91.77 357.09 100.65 358.57 108.7C360.04 116.75 361.29 123.83 362.31 129.93C362.97 133.91 363.53 137.36 364.01 140.28C364.48 143.21 364.99 145.56 365.53 147.35C368.29 156.4 373.81 160.57 382.1 159.86C384.25 159.62 385.68 160.65 386.38 162.95C386.81 164.35 386.91 166.27 386.68 168.71C386.57 171.11 385.71 173.54 384.08 175.98C382.42 178.3 379.55 180.08 375.46 181.33C369.98 183 365.72 182.27 362.68 179.16C359.64 176.04 356.97 170.72 354.68 163.2C353.09 170.79 350.23 177.65 346.11 183.79C341.98 189.92 336.35 194.08 329.21 196.26ZM328.9 173.98C332.47 172.89 335.69 170.65 338.57 167.27C341.44 163.89 343.68 159.79 345.28 154.98C346.2 152.05 346.83 148.86 347.17 145.41C347.6 141.8 347.91 138.22 348.08 134.68C339.79 130.8 331.69 130.06 323.78 132.47C316.89 134.57 312.05 138.34 309.25 143.79C306.41 149.12 305.93 154.84 307.79 160.96C309.39 166.19 312.22 170 316.29 172.38C320.36 174.77 324.57 175.3 328.9 173.98ZM414.61 169.82C412.57 170.44 410.81 170.63 409.34 170.38C407.96 169.96 407.21 168.87 407.09 167.09C406.82 161.18 406.28 155.28 405.46 149.4C404.73 143.35 403.57 137.71 401.98 132.48C399.92 125.72 397.98 120.94 396.15 118.16C394.42 115.2 392.67 113.36 390.92 112.64C389.13 111.79 387.11 111.36 384.88 111.35C383.87 111.23 382.88 110.98 381.93 110.57C381.09 110.13 380.5 109.33 380.15 108.19C379.61 106.4 379.71 104.21 380.45 101.61C381.19 99.02 382.61 96.57 384.69 94.26C386.74 91.82 389.42 90.1 392.73 89.09C397.07 87.77 400.53 88.39 403.12 90.94C405.8 93.33 407.88 96.95 409.36 101.8C410.1 96 411.68 91.12 414.1 87.18C416.62 83.07 420.42 80.24 425.52 78.68C428.97 77.63 432.07 77.52 434.83 78.36C437.6 79.19 439.5 81.32 440.55 84.77C441.6 88.21 441.44 91.81 440.08 95.57C438.8 99.17 437.02 101.31 434.72 102.01C434.34 102.13 433.87 102.2 433.33 102.23C432.78 102.26 432.23 102.08 431.69 101.68C429.42 100.15 427.06 99.75 424.64 100.49C420.94 101.61 418.43 105.03 417.1 110.73C415.77 116.43 416.28 123.59 418.63 132.22C419.73 135.37 420.78 138.6 421.79 141.92C422.93 145.19 423.73 147.6 424.2 149.13C425.63 153.85 425.48 158.14 423.73 162.02C422.12 165.86 419.07 168.46 414.61 169.82ZM475.59 53.6C474.31 53.99 473.11 53.94 471.99 53.45C470.99 52.91 470.29 52.01 469.91 50.73C469.48 49.33 469.56 47.77 470.15 46.06C471.42 41.07 472.84 36.11 474.4 31.18C475.96 26.24 477.81 21.77 479.94 17.78C481.98 13.95 484.46 11.59 487.4 10.7C489.44 10.08 491.83 10.39 494.59 11.65C497.46 12.86 499.31 14.81 500.13 17.48C500.48 18.63 500.57 20.07 500.39 21.79C500.18 23.39 499.64 25.02 498.75 26.68C496.4 30.88 493.43 35.07 489.82 39.23C486.34 43.36 482.69 47.4 478.87 51.35C477.96 52.46 476.86 53.21 475.59 53.6ZM494.32 145.95C484.62 148.91 476.2 148.48 469.04 144.66C461.98 140.68 456.93 133.72 453.9 123.77C451.14 114.72 450.61 105.89 452.31 97.28C454.01 88.68 457.51 81.2 462.83 74.84C468.22 68.32 474.94 63.84 482.98 61.39C490.63 59.06 497.34 59.1 503.09 61.53C508.81 63.83 512.62 68.11 514.53 74.36C516.04 79.33 515.91 84.39 514.13 89.53C512.35 94.67 509.3 99.29 504.98 103.4C500.61 107.38 495.31 110.32 489.06 112.22C481.4 114.55 474.63 114.74 468.73 112.77C470.65 118.6 474.06 122.71 478.98 125.12C484.02 127.49 489.6 127.74 495.72 125.87C499.42 124.75 502.99 122.96 506.43 120.52C509.96 117.91 512.77 115.03 514.88 111.88C516.2 109.81 517.62 108.54 519.15 108.07C520.43 107.68 521.59 107.82 522.62 108.48C523.75 108.97 524.51 109.86 524.89 111.13C525.75 113.94 524.45 118.37 521 124.44C514.95 135.21 506.05 142.38 494.32 145.95ZM483.49 100.12C488.08 98.72 491.61 96.6 494.09 93.75C496.57 90.91 497.36 88.02 496.47 85.08C495.73 82.66 494.15 81.12 491.72 80.47C489.25 79.69 486.23 79.84 482.66 80.93C477.94 82.37 474.18 84.9 471.39 88.54C468.68 92.02 467.25 96.22 467.08 101.15C469.21 101.75 471.78 101.95 474.78 101.73C477.78 101.51 480.68 100.98 483.49 100.12Z" />
</svg>